# xmcd
#
# Track frame offsets: 
#        150
#        20537
#        40225
#        51237
#        67750
#        81712
#        101137
#        121062
#        140637
#
# Disc length: 2039 seconds
#
# Revision: 0
# Processed by: cddbd v1.5.2PL0 Copyright (c) Steve Scherf et al.
# Submitted via: ExactAudioCopy v1.1
#
DISCID=7c07f509
DTITLE=John Letman - The Many Angles Of John Letman
DYEAR=1960
DGENRE=Jazz
TTITLE0=Mabel's Dream
TTITLE1=Tina
TTITLE2=This Time The Drink's On Me
TTITLE3=The Room Upstairs
TTITLE4=Moanin' Low
TTITLE5=Violets and Violins
TTITLE6=Violets and Violins
TTITLE7=Sittin' Alone Countin' My Tears
TTITLE8=Get Out Of My Sight
EXTD=
EXTT0=
EXTT1=
EXTT2=
EXTT3=
EXTT4=
EXTT5=
EXTT6=
EXTT7=
EXTT8=
PLAYORDER=
